<svg width="8" height="14" viewBox="0 0 8 14" fill="none" xmlns="http://www.w3.org/2000/svg">
<path d="M0.400124 12.2929C0.212616 12.4806 0.107328 12.735 0.107422 13.0003C0.107516 13.2655 0.212984 13.5199 0.400624 13.7074C0.588265 13.8949 0.842708 14.0002 1.10798 14.0001C1.37325 14 1.62762 13.8946 1.81512 13.7069L6.40012 9.12091C6.96254 8.55833 7.27848 7.79541 7.27848 6.99991C7.27848 6.20442 6.96254 5.4415 6.40012 4.87891L1.81112 0.292915C1.62072 0.120754 1.3714 0.0284085 1.11478 0.0349978C0.858167 0.0415872 0.613915 0.146607 0.432594 0.328313C0.251274 0.510019 0.146773 0.754494 0.140729 1.01112C0.134685 1.26775 0.227559 1.51687 0.400124 1.70691L4.98612 6.29291C5.17359 6.48044 5.27891 6.73475 5.27891 6.99991C5.27891 7.26508 5.17359 7.51939 4.98612 7.70691L0.400124 12.2929Z" fill="#83898F"/>
</svg>
