<svg width="72" height="72" viewBox="0 0 72 72" fill="none" xmlns="http://www.w3.org/2000/svg">
<path d="M69.8076 40.71C62.2436 29.128 63.0476 17.2561 59.4016 11.6741C55.7556 6.09205 44.8896 -3.53195 19.2156 13.2381C-6.45841 30.0081 0.0715949 48.238 4.0836 54.376C22.8596 83.12 83.2056 61.222 69.8076 40.71Z" fill="#ECEFF2"/>
<path d="M61.9115 42.0327L63.3257 40.6185L66.1541 43.4469L64.7399 44.8611L61.9115 42.0327Z" fill="#C2C8CD"/>
<path d="M53.7802 33.9028L55.1944 32.4886L58.0228 35.317L56.6086 36.7313L53.7802 33.9028Z" fill="#C2C8CD"/>
<path d="M62.2687 35.3271L65.0972 32.4987L66.5114 33.9129L63.6829 36.7414L62.2687 35.3271Z" fill="#C2C8CD"/>
<path d="M37.9795 66.1603C36.3255 66.1603 34.9795 64.8143 34.9795 63.1603C34.9795 61.5063 36.3255 60.1603 37.9795 60.1603C39.6335 60.1603 40.9795 61.5063 40.9795 63.1603C40.9795 64.8143 39.6335 66.1603 37.9795 66.1603ZM37.9795 62.1603C37.4275 62.1603 36.9795 62.6083 36.9795 63.1603C36.9795 63.7123 37.4275 64.1603 37.9795 64.1603C38.5315 64.1603 38.9795 63.7123 38.9795 63.1603C38.9795 62.6083 38.5315 62.1603 37.9795 62.1603Z" fill="#C2C8CD"/>
<path d="M39.0603 33.5001H16.5003V40.5001V54.5001H23.5003H30.4603H45.5003V40.6001V33.5001H39.0603Z" fill="#F3F3F1"/>
<path d="M50.4999 40.5999H45.4999V54.4999H47.4999H54.4579H58.4999V48.5999C58.4999 44.1819 54.9179 40.5999 50.4999 40.5999Z" fill="#2A6CEA"/>
<path d="M26.9998 58.5001C28.9328 58.5001 30.4998 56.9331 30.4998 55.0001C30.4998 53.0671 28.9328 51.5001 26.9998 51.5001C25.0668 51.5001 23.4998 53.0671 23.4998 55.0001C23.4998 56.9331 25.0668 58.5001 26.9998 58.5001Z" fill="#F3F3F1"/>
<path d="M51.0005 58.5001C52.9335 58.5001 54.5005 56.9331 54.5005 55.0001C54.5005 53.0671 52.9335 51.5001 51.0005 51.5001C49.0675 51.5001 47.5005 53.0671 47.5005 55.0001C47.5005 56.9331 49.0675 58.5001 51.0005 58.5001Z" fill="#F3F3F1"/>
<path d="M25 36.5C31.3513 36.5 36.5 31.3513 36.5 25C36.5 18.6487 31.3513 13.5 25 13.5C18.6487 13.5 13.5 18.6487 13.5 25C13.5 31.3513 18.6487 36.5 25 36.5Z" fill="#2A6CEA"/>
<path d="M21 36H16V42.3333V55H21V42.3333V36Z" fill="#E1E6EA"/>
<path d="M45.4999 40.5999V54.4999H47.4999H49.9999V40.5999H45.4999Z" fill="#191C1F" fill-opacity="0.1"/>
<path d="M27.9998 55.0001C27.9998 53.9281 28.4918 52.9821 29.2498 52.3401C28.6398 51.8241 27.8618 51.5001 26.9998 51.5001C25.0678 51.5001 23.4998 53.0681 23.4998 55.0001C23.4998 56.9321 25.0678 58.5001 26.9998 58.5001C27.8618 58.5001 28.6398 58.1761 29.2498 57.6601C28.4918 57.0181 27.9998 56.0721 27.9998 55.0001Z" fill="#D5DBE1"/>
<path d="M52.0005 55.0001C52.0005 53.9281 52.4925 52.9821 53.2505 52.3401C52.6405 51.8241 51.8625 51.5001 51.0005 51.5001C49.0685 51.5001 47.5005 53.0681 47.5005 55.0001C47.5005 56.9321 49.0685 58.5001 51.0005 58.5001C51.8625 58.5001 52.6405 58.1761 53.2505 57.6601C52.4925 57.0181 52.0005 56.0721 52.0005 55.0001Z" fill="#D5DBE1"/>
<path d="M18 25C18 19.42 21.976 14.77 27.25 13.724C26.522 13.578 25.77 13.5 25 13.5C18.648 13.5 13.5 18.648 13.5 25C13.5 31.352 18.648 36.5 25 36.5C25.77 36.5 26.522 36.422 27.25 36.276C21.976 35.23 18 30.58 18 25Z" fill="#191C1F" fill-opacity="0.1"/>
<path d="M25.0001 30.5001C24.6161 30.5001 24.2321 30.3541 23.9401 30.0601L17.9401 24.0601L20.0621 21.9381L25.0021 26.8781L29.9421 21.9381L32.0641 24.0601L26.0641 30.0601C25.7681 30.3541 25.3841 30.5001 25.0001 30.5001Z" fill="white"/>
<path d="M25.0006 56H16.5005C15.6725 56 15.0005 55.328 15.0005 54.5V38.78H18.0006V53H25.0006V56Z" fill="#191C1F"/>
<path d="M45.5001 56.0001H28.9601V53.0001H44.0001V35.0001H38.7801V32.0001H45.5001C46.3281 32.0001 47.0001 32.6721 47.0001 33.5001V54.5001C47.0001 55.3281 46.3281 56.0001 45.5001 56.0001Z" fill="#191C1F"/>
<path d="M58.5003 56H52.9582V53H57.0002V48.6C57.0002 45.016 54.0842 42.1 50.5002 42.1H47.0002V53H49.0002V56H45.5002C44.6722 56 44.0002 55.328 44.0002 54.5V40.6C44.0002 39.772 44.6722 39.1 45.5002 39.1H50.5002C55.7382 39.1 60.0003 43.362 60.0003 48.6V54.5C60.0003 55.328 59.3283 56 58.5003 56Z" fill="#191C1F"/>
<path d="M27 60.0001C24.244 60.0001 22 57.7561 22 55.0001C22 52.2441 24.244 50.0001 27 50.0001C29.756 50.0001 32 52.2441 32 55.0001C32 57.7561 29.756 60.0001 27 60.0001ZM27 53.0001C25.898 53.0001 25 53.8981 25 55.0001C25 56.1021 25.898 57.0001 27 57.0001C28.102 57.0001 29 56.1021 29 55.0001C29 53.8981 28.102 53.0001 27 53.0001Z" fill="#191C1F"/>
<path d="M51.0008 60.0001C48.2448 60.0001 46.0008 57.7561 46.0008 55.0001C46.0008 52.2441 48.2448 50.0001 51.0008 50.0001C53.7568 50.0001 56.0008 52.2441 56.0008 55.0001C56.0008 57.7561 53.7568 60.0001 51.0008 60.0001ZM51.0008 53.0001C49.8988 53.0001 49.0008 53.8981 49.0008 55.0001C49.0008 56.1021 49.8988 57.0001 51.0008 57.0001C52.1028 57.0001 53.0008 56.1021 53.0008 55.0001C53.0008 53.8981 52.1028 53.0001 51.0008 53.0001Z" fill="#191C1F"/>
</svg>
