<svg width="72" height="72" viewBox="0 0 72 72" fill="none" xmlns="http://www.w3.org/2000/svg">
<path d="M26.8214 70.0939C39.4174 64.3759 51.0314 66.9759 57.1014 64.2219C63.1714 61.4659 74.3354 52.1899 61.6614 24.2659C48.9874 -3.65809 29.9794 0.0239062 23.3014 3.05591C-7.96256 17.2439 4.51144 80.2179 26.8214 70.0939Z" fill="#ECEFF2"/>
<path d="M27.2939 19.7H27.1139L31.7999 15.952C32.82 15.14 32.24 13.5 30.9459 13.5H18.1319C16.8359 13.5 16.2579 15.14 17.2779 15.952L21.9619 19.7H21.7819C17.0139 22.496 13.1699 30.46 13.1699 36.234C13.1699 40.368 15.2359 44.5 20.0579 44.5H29.3579C34.18 44.5 36.246 40.366 36.246 36.234C36.25 30.46 32.062 22.496 27.2939 19.7Z" fill="#F3F3F1"/>
<path d="M17.6712 36.234C17.6712 30.462 21.5152 22.498 26.2832 19.7H26.4632L21.7792 15.952C20.7592 15.14 21.3392 13.5 22.6332 13.5H18.1332C16.8372 13.5 16.2592 15.14 17.2792 15.952L21.9632 19.7H21.7832C17.0152 22.496 13.1712 30.46 13.1712 36.234C13.1712 40.368 15.2372 44.5 20.0592 44.5H24.5592C19.7372 44.5 17.6712 40.366 17.6712 36.234Z" fill="#E1E6EA"/>
<path d="M49.7164 19.7H49.5364L54.2204 15.952C55.2404 15.14 54.6604 13.5 53.3664 13.5H40.5524C39.2564 13.5 38.6784 15.14 39.6984 15.952L44.3824 19.7H44.2024C39.4344 22.496 35.5904 30.46 35.5904 36.234C35.5904 40.368 37.6564 44.5 42.4784 44.5H51.7784C56.6004 44.5 58.6664 40.366 58.6664 36.234C58.6724 30.46 54.4844 22.496 49.7164 19.7Z" fill="#F3F3F1"/>
<path d="M40.0939 36.234C40.0939 30.462 43.9379 22.498 48.7059 19.7H48.8859L44.1999 15.952C43.1799 15.14 43.7599 13.5 45.0539 13.5H40.5539C39.2579 13.5 38.6799 15.14 39.6999 15.952L44.3839 19.7H44.2039C39.4359 22.496 35.5919 30.46 35.5919 36.234C35.5919 40.368 37.6579 44.5 42.4799 44.5H46.9799C42.1619 44.5 40.0939 40.366 40.0939 36.234Z" fill="#E1E6EA"/>
<path d="M38.8341 33.6999H38.6541L43.3381 29.9519C44.3581 29.1399 43.7781 27.4999 42.4841 27.4999H29.6701C28.3741 27.4999 27.7961 29.1399 28.8161 29.9519L33.5001 33.6999H33.3201C28.5521 36.4959 24.7081 44.4599 24.7081 50.2339C24.7081 54.3679 26.7741 58.4999 31.5961 58.4999H40.8961C45.7181 58.4999 47.7841 54.3659 47.7841 50.2339C47.7881 44.4599 43.6001 36.4959 38.8341 33.6999Z" fill="#2A6CEA"/>
<path d="M35.06 52.4C34.664 52.4 34.28 52.242 34 51.96L30 47.96L32.122 45.838L34.9 48.616L39.86 42L42.258 43.8L36.258 51.8C35.998 52.148 35.6 52.366 35.164 52.396C35.13 52.4 35.096 52.4 35.06 52.4Z" fill="white"/>
<path d="M29.2121 50.2339C29.2121 44.4619 33.0561 36.4979 37.8241 33.6999H38.0041L33.3201 29.9519C32.3001 29.1399 32.8801 27.4999 34.1741 27.4999H29.6741C28.3781 27.4999 27.8001 29.1399 28.8201 29.9519L33.5041 33.6999H33.3241C28.5561 36.4959 24.7121 44.4599 24.7121 50.2339C24.7121 54.3679 26.7781 58.4999 31.6001 58.4999H36.1001C31.2781 58.4999 29.2121 54.3659 29.2121 50.2339Z" fill="#191C1F" fill-opacity="0.1"/>
<path d="M59.9324 54.8193L62.7609 51.9909L64.1751 53.4051L61.3466 56.2335L59.9324 54.8193Z" fill="#C2C8CD"/>
<path d="M51.8017 62.9487L54.6301 60.1203L56.0443 61.5345L53.2159 64.3629L51.8017 62.9487Z" fill="#C2C8CD"/>
<path d="M51.8012 53.0505L53.2154 51.6363L56.0439 54.4647L54.6296 55.879L51.8012 53.0505Z" fill="#C2C8CD"/>
<path d="M59.9307 61.1813L61.345 59.7671L64.1734 62.5955L62.7592 64.0097L59.9307 61.1813Z" fill="#C2C8CD"/>
<path d="M28.3807 20.8721L26.5067 18.5281L30.9187 15.0001H18.8167L23.2287 18.5281L21.3547 20.8721L16.6707 17.1241C15.7007 16.3521 15.3407 15.0941 15.7507 13.9241C16.1587 12.7561 17.2247 12.0001 18.4607 12.0001H31.2747C32.5127 12.0001 33.5747 12.7561 33.9847 13.9261C34.3947 15.0961 34.0327 16.3521 33.0647 17.1261L28.3807 20.8721Z" fill="#191C1F"/>
<path d="M17.6338 18.2002H32.0997V21.2002H17.6338V18.2002Z" fill="#191C1F"/>
<path d="M20.3903 46.0002C14.5943 46.0002 12.0003 41.0942 12.0003 36.2322C12.0003 30.3962 15.8403 21.6382 21.3523 18.4062L22.8703 20.9923C18.7503 23.4103 15.0003 30.6742 15.0003 36.2322C15.0003 37.3622 15.2603 43.0002 20.3903 43.0002V46.0002Z" fill="#191C1F"/>
<path d="M50.6462 20.8721L48.7722 18.5281L53.1842 15.0001H41.0822L45.4942 18.5281L43.6202 20.8721L38.9362 17.1261C37.9682 16.3521 37.6061 15.0941 38.0161 13.9241C38.4261 12.7561 39.4902 12.0001 40.7262 12.0001H53.5402C54.7782 12.0001 55.8402 12.7561 56.2502 13.9261C56.6602 15.0961 56.2982 16.3521 55.3302 17.1261L50.6462 20.8721Z" fill="#191C1F"/>
<path d="M39.8999 18.2002H54.366V21.2002H39.8999V18.2002Z" fill="#191C1F"/>
<path d="M51.6117 46.0002V43.0002C56.7397 43.0002 56.9997 37.3642 56.9997 36.2322C56.9997 30.6742 53.2497 23.4103 49.1297 20.9923L50.6477 18.4062C56.1577 21.6382 59.9997 30.3962 59.9997 36.2322C59.9997 41.0942 57.4057 46.0002 51.6117 46.0002Z" fill="#191C1F"/>
</svg>
