<svg width="72" height="72" viewBox="0 0 72 72" fill="none" xmlns="http://www.w3.org/2000/svg">
<path d="M8.33415 55.2461C8.33415 41.4121 1.16815 31.9121 1.16815 25.2461C1.16815 18.5801 5.00015 4.58008 35.6662 4.58008C66.3322 4.58008 70.8322 23.4141 70.8322 30.7461C70.8342 65.0801 8.33415 79.7461 8.33415 55.2461Z" fill="#ECEFF2"/>
<path d="M53.2497 16.5001H55.2497V20.5001H53.2497V16.5001Z" fill="#C2C8CD"/>
<path d="M57.7497 22.5H61.7497V24.5H57.7497V22.5Z" fill="#C2C8CD"/>
<path d="M42.5 48.64V17.5C42.5 15.29 40.71 13.5 38.5 13.5H17.5C15.29 13.5 13.5 15.29 13.5 17.5V48.64C13.5 50.85 15.29 52.64 17.5 52.64H38.5C40.71 52.64 42.5 50.85 42.5 48.64Z" fill="#F3F3F1"/>
<path d="M47.9997 58.5001C47.9997 58.5001 58.4997 54.0361 58.4997 45.1081C58.4997 41.5361 58.4997 37.0721 58.4997 37.0721L47.9997 33.5001L37.4997 37.0721V45.1081C37.4997 54.0361 47.9997 58.5001 47.9997 58.5001Z" fill="#2A6CEA"/>
<path d="M18 48.64V17.5C18 15.29 19.79 13.5 22 13.5H17.5C15.29 13.5 13.5 15.29 13.5 17.5V48.64C13.5 50.85 15.29 52.64 17.5 52.64H22C19.79 52.64 18 50.85 18 48.64Z" fill="#E1E6EA"/>
<path d="M41.9997 45.1081C41.9997 39.7501 41.9997 37.0721 41.9997 37.0721L50.2497 34.2661L47.9997 33.5001L37.4997 37.0721V45.1081C37.4997 54.0361 47.9997 58.5001 47.9997 58.5001C47.9997 58.5001 48.9417 58.0941 50.2497 57.3021C47.1657 55.4341 41.9997 51.3761 41.9997 45.1081Z" fill="#191C1F" fill-opacity="0.1"/>
<path d="M30.5003 54.0001H17.5003C14.4663 54.0001 12.0003 51.5341 12.0003 48.5001V17.5001C12.0003 14.4661 14.4663 12.0001 17.5003 12.0001H38.5003C41.5343 12.0001 44.0003 14.4661 44.0003 17.5001V28.5001H41.0003V17.5001C41.0003 16.1221 39.8783 15.0001 38.5003 15.0001H17.5003C16.1223 15.0001 15.0003 16.1221 15.0003 17.5001V48.5001C15.0003 49.8781 16.1223 51.0001 17.5003 51.0001H30.5003V54.0001Z" fill="#191C1F"/>
<path d="M20.5599 37.5599L18.4399 35.4399L23.4399 30.4399C23.9179 29.9599 24.6559 29.8619 25.2439 30.1979L27.7899 31.6539L33.4819 26.3999L35.5179 28.6059L29.0179 34.6059C28.5359 35.0499 27.8219 35.1299 27.2559 34.8059L24.7499 33.3739L20.5599 37.5599Z" fill="#191C1F"/>
<path d="M35.9998 34H32.9998V29H27.9998V26H34.4998C35.3278 26 35.9998 26.672 35.9998 27.5V34Z" fill="#191C1F"/>
<path d="M47.4996 50.9999C47.1036 50.9999 46.7196 50.8419 46.4396 50.5599L42.4396 46.5599L44.5616 44.4379L47.3396 47.2159L52.2996 40.5999L54.6976 42.3999L48.6976 50.3999C48.4376 50.7479 48.0396 50.9658 47.6036 50.9958C47.5696 50.9998 47.5356 50.9999 47.4996 50.9999Z" fill="white"/>
</svg>
