<svg width="72" height="72" viewBox="0 0 72 72" fill="none" xmlns="http://www.w3.org/2000/svg">
<path d="M69.8076 40.71C62.2436 29.128 63.0476 17.2561 59.4016 11.6741C55.7556 6.09205 44.8896 -3.53195 19.2156 13.2381C-6.45841 30.0081 0.0715949 48.238 4.0836 54.376C22.8596 83.12 83.2056 61.222 69.8076 40.71Z" fill="#ECEFF2"/>
<path d="M37.5 22.892C37.5 23.352 37.198 23.748 36.78 23.884L27.066 27.066L23.884 36.78C23.748 37.198 23.352 37.5 22.892 37.5C22.444 37.5 22.068 37.218 21.922 36.832L13.574 14.92C13.52 14.804 13.5 14.68 13.5 14.544C13.5 13.97 13.97 13.5 14.544 13.5C14.68 13.5 14.804 13.52 14.92 13.574L36.834 21.922C37.218 22.066 37.5 22.442 37.5 22.892Z" fill="#F3F3F1"/>
<path d="M18.074 14.92C18.052 14.872 18.054 14.814 18.042 14.764L14.92 13.574C14.804 13.52 14.68 13.5 14.544 13.5C13.97 13.5 13.5 13.97 13.5 14.544C13.5 14.68 13.52 14.804 13.572 14.92L21.92 36.834C22.066 37.22 22.442 37.502 22.89 37.502C23.35 37.502 23.746 37.2 23.882 36.782L25.046 33.228L18.074 14.92Z" fill="#E1E6EA"/>
<path d="M45 58.5C52.4558 58.5 58.5 52.4558 58.5 45C58.5 37.5442 52.4558 31.5 45 31.5C37.5442 31.5 31.5 37.5442 31.5 45C31.5 52.4558 37.5442 58.5 45 58.5Z" fill="#2A6CEA"/>
<path d="M36 45C36 38.312 40.868 32.776 47.25 31.702C46.516 31.578 45.768 31.5 45 31.5C37.544 31.5 31.5 37.544 31.5 45C31.5 52.456 37.544 58.5 45 58.5C45.768 58.5 46.516 58.42 47.25 58.298C40.868 57.224 36 51.688 36 45Z" fill="#191C1F" fill-opacity="0.1"/>
<path d="M60.257 25.3634L61.6712 23.9492L64.4997 26.7776L63.0854 28.1918L60.257 25.3634Z" fill="#C2C8CD"/>
<path d="M52.1286 17.23L53.5428 15.8158L56.3712 18.6442L54.957 20.0584L52.1286 17.23Z" fill="#C2C8CD"/>
<path d="M60.6128 18.646L63.4412 15.8176L64.8554 17.2318L62.027 20.0602L60.6128 18.646Z" fill="#C2C8CD"/>
<path d="M52.4832 26.7749L55.3116 23.9465L56.7258 25.3607L53.8974 28.1891L52.4832 26.7749Z" fill="#C2C8CD"/>
<path d="M49.5493 51.6599L44.0493 47.1599C43.6993 46.8759 43.4993 46.4499 43.4993 45.9999V37.4999H46.4993V45.2899L51.4493 49.3399L49.5493 51.6599Z" fill="white"/>
<path d="M22.8903 39.0001C21.8423 39.0001 20.8883 38.3421 20.5163 37.3641L12.1703 15.4541C12.0663 15.2241 12.0003 14.8941 12.0003 14.5421C12.0003 13.1401 13.1403 12.0001 14.5423 12.0001C14.8943 12.0001 15.2243 12.0661 15.5243 12.2001L37.3643 20.5181C38.3403 20.8901 38.9983 21.8421 38.9983 22.8921C38.9983 23.9961 38.2923 24.9661 37.2443 25.3101L28.2523 28.2561L25.3063 37.2481C24.9643 38.2941 23.9943 39.0001 22.8903 39.0001ZM15.3343 15.3361L22.8603 35.0841L25.6403 26.5981C25.7883 26.1441 26.1463 25.7881 26.5983 25.6401L35.0843 22.8601L15.3343 15.3361ZM14.3863 14.9741C14.3923 14.9761 14.4003 14.9801 14.4103 14.9821L14.3863 14.9741ZM14.9463 14.3141L14.9723 14.3821C14.9643 14.3621 14.9563 14.3401 14.9463 14.3141Z" fill="#191C1F"/>
</svg>
